<svg width="62" height="62" viewBox="0 0 62 62" fill="none" xmlns="http://www.w3.org/2000/svg">
<path d="M10.7679 0.00745686C7.20812 0.140052 3.7904 2.03331 1.79967 5.36573C0.136621 8.18667 -0.402462 11.5612 0.302221 14.8472C1.0069 18.0711 2.92408 20.8966 5.68644 22.6636L5.82958 22.7241C14.3703 28.118 19.67 38.1942 19.67 49.013C19.67 52.2679 20.709 55.3681 22.6539 57.786C24.7116 60.328 27.4457 61.8147 30.4054 61.9697C30.6027 62.0007 30.8027 62 31 62C33.9315 62 36.6643 60.7922 38.8066 58.5913C41.0616 56.2353 42.33 52.9497 42.33 49.5397V49.013C42.33 38.1942 47.6611 28.1158 56.0328 22.815L56.4512 22.5667C59.0726 20.8928 60.9931 18.0711 61.6978 14.8472C62.4025 11.5612 61.8634 8.18667 60.2003 5.36573C57.0152 0.033855 50.1934 -1.60887 44.9505 1.73906L42.2749 3.41011V21.7009C42.2749 28.5518 37.2294 34.1006 31 34.1006C24.7706 34.1006 19.7251 28.5518 19.7251 21.7009V3.44039L17.0495 1.73906C15.094 0.483587 12.9037 -0.0720997 10.7679 0.00745686ZM31 3.10133C27.8853 3.10133 25.3625 5.87577 25.3625 9.30119V21.7009C25.3625 25.1263 27.8853 27.9008 31 27.9008C34.1147 27.9008 36.6375 25.1263 36.6375 21.7009V9.30119C36.6375 5.87577 34.1147 3.10133 31 3.10133Z" fill="#858585"/>
</svg>
