<svg width="40" height="42" viewBox="0 0 40 42" fill="none" xmlns="http://www.w3.org/2000/svg">
<path d="M29.5112 18.1815V10.2331C29.5112 10.0056 29.4061 9.79536 29.2574 9.62906L20.3461 0.271408C20.1798 0.0964508 19.9433 0 19.7072 0H5.57857C2.97023 0 0.886765 2.12704 0.886765 4.7357V31.4519C0.886765 34.0606 2.97023 36.1527 5.57857 36.1527H16.731C18.8404 39.6541 22.6747 42 27.0426 42C33.6778 42 39.0963 36.6077 39.0963 29.9638C39.1053 24.1601 34.9384 19.3107 29.5112 18.1815ZM20.5826 3.07265L26.5613 9.3663H22.6834C21.5279 9.3663 20.5826 8.41237 20.5826 7.25688V3.07265ZM5.57857 34.4019C3.94179 34.4019 2.63762 33.0887 2.63762 31.4519V4.7357C2.63762 3.08995 3.94179 1.75085 5.57857 1.75085H18.8317V7.25688C18.8317 9.38393 20.5563 11.1172 22.6834 11.1172H27.7603V17.9536C27.4979 17.945 27.2877 17.9187 27.0602 17.9187C24.0052 17.9187 21.1953 19.0918 19.0769 20.9301H7.95972C7.4781 20.9301 7.08429 21.324 7.08429 21.8053C7.08429 22.2869 7.4781 22.6807 7.95972 22.6807H17.4487C16.8271 23.5561 16.3106 24.4315 15.9081 25.3944H7.95972C7.4781 25.3944 7.08429 25.7883 7.08429 26.2699C7.08429 26.7512 7.4781 27.1453 7.95972 27.1453H15.339C15.1201 28.0207 15.0064 28.9923 15.0064 29.9638C15.0064 31.5394 15.3127 33.0977 15.8642 34.4108H5.57857V34.4019ZM27.0515 40.2581C21.3792 40.2581 16.7659 35.6448 16.7659 29.9725C16.7659 24.3002 21.3702 19.6869 27.0515 19.6869C32.7325 19.6869 37.3368 24.3002 37.3368 29.9725C37.3368 35.6448 32.7239 40.2581 27.0515 40.2581Z" fill="white"/>
<path d="M7.95972 18.2952H16.8271C17.3087 18.2952 17.7025 17.9011 17.7025 17.4198C17.7025 16.9382 17.3087 16.5444 16.8271 16.5444H7.95972C7.4781 16.5444 7.08429 16.9382 7.08429 17.4198C7.08429 17.9011 7.4781 18.2952 7.95972 18.2952Z" fill="white"/>
<path d="M27.6729 23.5122C27.5065 23.3373 27.279 23.2322 27.0339 23.2322C26.7888 23.2322 26.5613 23.3373 26.395 23.5122L21.2651 29.0183C20.9325 29.3685 20.9588 29.9286 21.309 30.2526C21.6593 30.5852 22.228 30.5589 22.5606 30.209L26.1848 26.3311V35.89C26.1848 36.3716 26.5786 36.7654 27.0602 36.7654C27.5415 36.7654 27.9356 36.3716 27.9356 35.89V26.3311L31.5331 30.209C31.7084 30.3926 31.9359 30.4891 32.1724 30.4891C32.3823 30.4891 32.5925 30.4102 32.7674 30.2526C33.1177 29.92 33.144 29.3685 32.8113 29.0183L27.6729 23.5122Z" fill="white"/>
</svg>
