<svg width="46" height="50" viewBox="0 0 46 50" fill="none" xmlns="http://www.w3.org/2000/svg">
<path d="M32.7391 22.3394C32.1397 22.257 31.5194 22.2153 30.8988 22.2153C23.6215 22.2153 17.7186 28.1182 17.7186 35.3959C17.7186 37.6702 18.2976 39.8102 19.3106 41.6811L19.2898 41.6917H5.54115C3.02884 41.6917 0.992207 39.655 0.992207 37.1431V5.59263C0.992207 3.0807 3.02884 1.04407 5.54115 1.04407H22.2259V8.57001C22.2259 10.5132 23.7971 12.0847 25.7406 12.0847H32.7391V22.3394Z" fill="#3385FF"/>
<path d="M22.2259 1.04407L32.7391 12.0847H25.7406C23.7971 12.0847 22.2259 10.5132 22.2259 8.57001V1.04407Z" fill="#285393"/>
<path d="M33.8039 21.4713V12.0847C33.8039 11.8157 33.6798 11.5678 33.5042 11.3714L22.9805 0.320519C22.7841 0.113903 22.5048 0 22.2259 0H5.54115C2.46046 0 0 2.51193 0 5.59262V37.1431C0 40.2238 2.46046 42.6944 5.54115 42.6944H18.7112C21.2746 47.036 25.8852 49.5998 30.8992 49.5998C38.7351 49.5998 45.1133 43.2318 45.1133 35.3857C45.1133 31.933 43.8831 28.6143 41.6088 26.0199C39.5517 23.6836 36.8017 22.0916 33.8039 21.4713ZM23.2597 3.62863L30.3202 11.0611H25.7406C24.3761 11.0611 23.2594 9.93456 23.2594 8.56999L23.2597 3.62863ZM2.06767 37.1431V5.59262C2.06767 3.64907 3.60782 2.06767 5.54115 2.06767H21.1921V8.56999C21.1921 11.0819 23.2287 13.1288 25.7406 13.1288H31.7366V21.2023C31.4263 21.1921 31.1781 21.1508 30.9094 21.1508C27.3016 21.1508 23.9833 22.5358 21.4816 24.7068H8.35278C7.7844 24.7068 7.31895 25.1719 7.31895 25.7406C7.31895 26.3094 7.78402 26.7745 8.35278 26.7745H19.5588C18.8247 27.8083 18.2147 28.8421 17.7394 29.9793H8.35278C7.7844 29.9793 7.31895 30.4444 7.31895 31.0127C7.31895 31.5815 7.78402 32.0466 8.35278 32.0466H17.0673C16.8089 33.0804 16.6745 34.2278 16.6745 35.3755C16.6745 37.1843 17.0155 38.9727 17.6773 40.6268H5.54115C3.60782 40.6268 2.06767 39.076 2.06767 37.1431ZM30.8992 47.5427C26.4437 47.5427 22.3394 45.1031 20.2101 41.1849C19.2485 39.4174 18.7422 37.422 18.7422 35.3959C18.7422 28.6972 24.1899 23.2491 30.8886 23.2491C31.4574 23.2491 32.0258 23.2908 32.5839 23.363C35.458 23.7661 38.1043 25.1927 40.027 27.3845C41.9705 29.5967 43.0354 32.4394 43.0354 35.3959C43.0456 42.0947 37.5979 47.5427 30.8992 47.5427Z" fill="#333333"/>
<path d="M8.35278 21.6057H18.8247C19.3935 21.6057 19.8585 21.1402 19.8585 20.5719C19.8585 20.0031 19.3935 19.538 18.8247 19.538H8.35278C7.7844 19.538 7.31895 20.0031 7.31895 20.5719C7.31895 21.1402 7.7844 21.6057 8.35278 21.6057Z" fill="#333333"/>
<path d="M36.1917 35.1787L31.9433 39.7583V28.4698C31.9433 27.901 31.4778 27.4359 30.9094 27.4359C30.3407 27.4359 29.8756 27.901 29.8756 28.4698V39.7583L25.5957 35.1787C25.2029 34.7655 24.5414 34.7345 24.1278 35.1269C23.7142 35.52 23.6832 36.1713 24.076 36.5845L30.1235 43.0869C30.3198 43.2939 30.5889 43.418 30.878 43.418C31.1675 43.418 31.4366 43.2939 31.6326 43.0869L37.68 36.5845C38.0732 36.1713 38.0524 35.5095 37.6388 35.1269C37.2256 34.7345 36.5845 34.7655 36.1917 35.1787Z" fill="white"/>
</svg>
