<svg width="19" height="21" viewBox="0 0 19 21" fill="none" xmlns="http://www.w3.org/2000/svg">
<path d="M16.0018 6.7235C16.202 6.7235 16.3836 6.81084 16.5271 6.95842C16.6609 7.11603 16.7282 7.3118 16.7087 7.51861C16.7087 7.58688 16.1737 14.3533 15.868 17.2015C15.6767 18.9493 14.5499 20.0105 12.8598 20.0396C11.5603 20.0687 10.29 20.0787 9.03924 20.0787C7.71136 20.0787 6.41277 20.0687 5.15227 20.0396C3.51878 20.0004 2.39106 18.9202 2.20945 17.2015C1.89506 14.3433 1.36977 7.58688 1.36 7.51861C1.35024 7.3118 1.41663 7.11603 1.55137 6.95842C1.68416 6.81084 1.87553 6.7235 2.07667 6.7235H16.0018ZM11.1083 0C11.9958 0 12.7886 0.619423 13.0181 1.50288L13.1821 2.23574C13.3149 2.83308 13.8324 3.25573 14.428 3.25573H17.3552C17.7457 3.25573 18.0709 3.58 18.0709 3.99262V4.37411C18.0709 4.77668 17.7457 5.11099 17.3552 5.11099H0.716664C0.325135 5.11099 0 4.77668 0 4.37411V3.99262C0 3.58 0.325135 3.25573 0.716664 3.25573H3.64385C4.23847 3.25573 4.75595 2.83308 4.88972 2.23675L5.04301 1.55207C5.28125 0.619423 6.06528 0 6.96257 0H11.1083Z" fill="#333333"/>
</svg>
