<svg width="62" height="62" viewBox="0 0 62 62" fill="none" xmlns="http://www.w3.org/2000/svg">
<path d="M46.5 0C41.4577 0 37.0172 2.4603 34.1848 6.2H6.2C2.7745 6.2 0 8.9745 0 12.4V55.8C0 56.3518 0.0967781 56.8748 0.230078 57.3863L33.0162 24.6002C33.8579 26.6505 34.8317 28.5966 35.7832 30.4127C35.8061 30.4565 35.8209 30.4962 35.8438 30.5398L32.2836 34.1L55.5699 57.3863C55.7032 56.8748 55.8 56.3518 55.8 55.8V33.0465C56.291 32.0018 56.8183 30.9399 57.3803 29.8436C59.5472 25.6121 62 20.8134 62 15.5C62 6.9533 55.0467 0 46.5 0ZM46.4152 6.29082C51.5519 6.29082 55.7152 10.4541 55.7152 15.5908C55.7121 23.3284 47.6686 31.0932 47.6686 39.2586C47.6686 39.8972 47.0478 40.3727 46.4092 40.3727C45.7706 40.3727 45.2467 39.8064 45.2467 39.1678C45.2467 31.0024 37.1152 24.0414 37.1152 15.5908C37.1152 10.4541 41.2785 6.29082 46.4152 6.29082ZM15.5061 12.4C17.9179 12.4 20.1112 13.3153 21.7666 14.8219L19.151 17.4436C18.1683 16.6035 16.898 16.0873 15.5061 16.0873C12.4061 16.0873 9.89336 18.6 9.89336 21.7C9.89336 24.7969 12.4061 27.3127 15.5061 27.3127C18.107 27.3127 19.9075 25.7678 20.5678 23.6133H15.5061V20.0652L24.2672 20.0773C25.0298 23.7012 23.3119 31 15.5061 31C10.3663 31 6.2 26.8367 6.2 21.7C6.2 16.5633 10.3663 12.4 15.5061 12.4ZM46.5 12.4C45.6778 12.4 44.8893 12.7266 44.308 13.308C43.7266 13.8893 43.4 14.6778 43.4 15.5C43.4 16.3222 43.7266 17.1107 44.308 17.692C44.8893 18.2734 45.6778 18.6 46.5 18.6C47.3222 18.6 48.1107 18.2734 48.692 17.692C49.2734 17.1107 49.6 16.3222 49.6 15.5C49.6 14.6778 49.2734 13.8893 48.692 13.308C48.1107 12.7266 47.3222 12.4 46.5 12.4ZM27.9 38.4836L4.61367 61.7699C5.12517 61.9032 5.6482 62 6.2 62H49.6C50.1518 62 50.6748 61.9032 51.1863 61.7699L27.9 38.4836Z" fill="#858585"/>
</svg>
