<svg width="38" height="42" viewBox="0 0 38 42" fill="none" xmlns="http://www.w3.org/2000/svg">
<path d="M28.4674 18.0817V10.1769C28.4674 9.95068 28.3629 9.74163 28.215 9.57624L19.3526 0.269919C19.1872 0.0959217 18.952 0 18.7172 0H4.66607C2.07204 0 0 2.11538 0 4.70973V31.2794C0 33.8738 2.07204 35.9544 4.66607 35.9544H15.7573C17.8551 39.4366 21.6684 41.7696 26.0123 41.7696C32.6112 41.7696 38 36.4069 38 29.7995C38.0089 24.0276 33.8648 19.2047 28.4674 18.0817ZM19.5878 3.05579L25.5337 9.31492H21.677C20.5279 9.31492 19.5878 8.36622 19.5878 7.21707V3.05579ZM4.66607 34.2131C3.03827 34.2131 1.74125 32.9072 1.74125 31.2794V4.70973C1.74125 3.073 3.03827 1.74125 4.66607 1.74125H17.8465V7.21707C17.8465 9.33245 19.5617 11.0562 21.677 11.0562H26.7262V17.8551C26.4652 17.8465 26.2561 17.8204 26.0298 17.8204C22.9916 17.8204 20.1971 18.9871 18.0903 20.8153H7.03415C6.55518 20.8153 6.16353 21.207 6.16353 21.6856C6.16353 22.1646 6.55518 22.5563 7.03415 22.5563H16.4711C15.8529 23.4269 15.3392 24.2975 14.9389 25.2551H7.03415C6.55518 25.2551 6.16353 25.6468 6.16353 26.1258C6.16353 26.6044 6.55518 26.9964 7.03415 26.9964H14.373C14.1553 27.867 14.0422 28.8332 14.0422 29.7995C14.0422 31.3664 14.3468 32.9161 14.8953 34.2221H4.66607V34.2131ZM26.0212 40.0373C20.38 40.0373 15.792 35.4493 15.792 29.8081C15.792 24.1669 20.3711 19.5789 26.0212 19.5789C31.6711 19.5789 36.2501 24.1669 36.2501 29.8081C36.2501 35.4493 31.6625 40.0373 26.0212 40.0373Z" fill="white"/>
<path d="M7.03415 18.1949H15.8529C16.3319 18.1949 16.7235 17.8029 16.7235 17.3242C16.7235 16.8453 16.3319 16.4536 15.8529 16.4536H7.03415C6.55518 16.4536 6.16353 16.8453 6.16353 17.3242C6.16353 17.8029 6.55518 18.1949 7.03415 18.1949Z" fill="white"/>
<path d="M30.4783 29.6252L26.9005 33.4818V23.9754C26.9005 23.4964 26.5085 23.1047 26.0298 23.1047C25.5509 23.1047 25.1592 23.4964 25.1592 23.9754V33.4818L21.555 29.6252C21.2242 29.2772 20.6671 29.2511 20.3188 29.5818C19.9705 29.9126 19.9444 30.4611 20.2755 30.8094L25.3683 36.2852C25.5337 36.4592 25.7599 36.5637 26.0037 36.5637C26.2475 36.5637 26.4738 36.4592 26.6392 36.2852L31.7409 30.8094C32.0716 30.4611 32.0541 29.904 31.7058 29.5818C31.3489 29.2511 30.8094 29.2772 30.4783 29.6252Z" fill="white"/>
</svg>
