<svg width="19" height="19" viewBox="0 0 19 19" fill="none" xmlns="http://www.w3.org/2000/svg">
<path d="M13.932 0.00981849C15.2986 -0.0755931 16.6462 0.398916 17.6617 1.32895C18.5917 2.3444 19.0663 3.69201 18.9903 5.06809V13.9319C19.0757 15.308 18.5917 16.6556 17.6712 17.671C16.6557 18.6011 15.2986 19.0756 13.932 18.9902H5.06813C3.69204 19.0756 2.34442 18.6011 1.32896 17.671C0.398919 16.6556 -0.0755938 15.308 0.00981857 13.9319V5.06809C-0.0755938 3.69201 0.398919 2.3444 1.32896 1.32895C2.34442 0.398916 3.69204 -0.0755931 5.06813 0.00981849H13.932ZM13.6853 4.34683C13.0969 3.75844 12.1479 3.75844 11.5595 4.34683L10.9236 4.99216C10.8287 5.08707 10.8287 5.2484 10.9236 5.3433C10.9236 5.3433 10.9422 5.36181 10.9754 5.39477L11.2088 5.62693C11.3439 5.76128 11.5124 5.92906 11.6816 6.09777L12.2555 6.67138C12.3753 6.79167 12.4547 6.87227 12.461 6.88071C12.5654 6.99459 12.6319 7.14644 12.6319 7.31726C12.6319 7.6589 12.3566 7.94361 12.0055 7.94361C11.8442 7.94361 11.6923 7.87718 11.5879 7.77279L10.0031 6.19742C9.92714 6.1215 9.79427 6.1215 9.71835 6.19742L5.1915 10.7242C4.87832 11.0374 4.69801 11.455 4.68852 11.901L4.63157 14.1502C4.63157 14.2736 4.66954 14.3874 4.75495 14.4729C4.84036 14.5583 4.95424 14.6057 5.07762 14.6057H7.30783C7.76336 14.6057 8.19991 14.4254 8.53207 14.1027L14.919 7.69687C15.4979 7.10847 15.4979 6.15946 14.919 5.58056L13.6853 4.34683Z" fill="#333333"/>
</svg>
