<svg width="62" height="62" fill="#858585" viewBox="0 0 62 62" xmlns="http://www.w3.org/2000/svg">
<path d="M41.6718 0.0112568C31.4893 1.19771 22.8754 8.41549 21.7478 16.795C21.5898 17.9629 22.7354 18.9044 23.8352 18.4831C25.7713 17.7396 28.8891 15.9251 32.0395 15.6092C30.9212 18.0316 30.5973 20.8951 31.7249 23.9526C31.8929 24.4084 32.1436 24.8214 32.3723 25.2474L29.3894 28.2303C28.8011 27.9045 28.1228 27.7791 27.4568 27.8728C26.7909 27.9666 26.1736 28.2744 25.6981 28.75C25.2225 29.2255 24.9147 29.8428 24.8209 30.5087C24.7271 31.1747 24.8526 31.853 25.1784 32.4413L7.70472 49.9148C7.11639 49.5891 6.43804 49.4636 5.77212 49.5574C5.10619 49.6511 4.48886 49.959 4.01333 50.4346C3.53781 50.9101 3.22992 51.5274 3.13617 52.1933C3.04241 52.8592 3.16788 53.5376 3.49363 54.1259L0.952447 56.6671C0.655138 56.9525 0.417775 57.2944 0.254257 57.6728C0.0907388 58.0511 0.00435345 58.4582 0.000160348 58.8704C-0.00403276 59.2825 0.0740506 59.6913 0.229837 60.0729C0.385624 60.4545 0.615982 60.8011 0.907421 61.0926C1.19886 61.384 1.54552 61.6144 1.9271 61.7702C2.30868 61.926 2.71751 62.004 3.12965 61.9998C3.54178 61.9957 3.94894 61.9093 4.32727 61.7457C4.7056 61.5822 5.04751 61.3449 5.33295 61.0476L7.87413 58.5064C8.46247 58.8321 9.14081 58.9576 9.80674 58.8639C10.4727 58.7701 11.09 58.4622 11.5655 57.9867C12.041 57.5112 12.3489 56.8938 12.4427 56.2279C12.5364 55.562 12.411 54.8837 12.0852 54.2953L29.5589 36.8218C30.1472 37.1476 30.8255 37.273 31.4915 37.1793C32.1574 37.0855 32.7747 36.7776 33.2502 36.3021C33.7258 35.8266 34.0337 35.2093 34.1274 34.5433C34.2212 33.8774 34.0957 33.1991 33.77 32.6107L36.7528 29.6279C37.1799 29.8574 37.5968 30.1069 38.0537 30.2753C41.1112 31.4029 43.9747 31.079 46.3972 29.9607C46.0781 33.108 44.2576 36.2349 43.5172 38.171C43.0959 39.2708 44.0434 40.4164 45.2113 40.2584C53.5909 39.1308 60.8027 30.517 61.9891 20.3345C62.144 18.9901 60.6079 18.083 59.5206 18.8885C57.6061 20.3073 54.6605 23.9294 51.7579 24.5335C52.839 22.1079 53.1092 19.2376 51.9878 16.2142C50.9345 13.3735 48.6268 11.0658 45.7861 10.0125C42.7626 8.89114 39.8955 9.16133 37.4668 10.2425C38.0708 7.33673 41.693 4.39425 43.1118 2.47981C43.9172 1.39249 43.0163 -0.146731 41.6718 0.0112568ZM37.8116 15.4942C39.1034 15.4942 42.237 15.7233 44.1948 17.8236C46.7041 20.5218 46.5061 24.7573 46.5061 24.7573C46.5061 24.7573 46.2879 24.7755 45.9192 24.7755C44.6274 24.7755 41.5028 24.5464 39.5481 22.4461C37.0327 19.7479 37.2248 15.5123 37.2248 15.5123C37.2248 15.5123 37.443 15.4942 37.8116 15.4942Z"/>
</svg>
